<?xml version="1.0" encoding="UTF-8"?>
<svg version="1.1" xmlns="http://www.w3.org/2000/svg" width="512" height="512">
<path d="M0 0 C1.26231445 -0.01606293 2.52462891 -0.03212585 3.82519531 -0.04867554 C5.20246702 -0.06016947 6.57974637 -0.07077691 7.95703125 -0.08056641 C8.65550171 -0.08589008 9.35397217 -0.09121376 10.0736084 -0.09669876 C13.77676289 -0.12339612 17.47988421 -0.14277459 21.18310547 -0.15722656 C24.22670912 -0.1705121 27.26963375 -0.19826766 30.31298828 -0.23925781 C34.00706497 -0.28899616 37.70053086 -0.31339786 41.39492798 -0.32045364 C42.79178547 -0.32710246 44.18863278 -0.34215492 45.58529663 -0.36634445 C57.99948708 -0.56894164 68.09124524 2.11312545 77.734375 10.18115234 C83.79393558 16.17092911 87.77470727 22.92202396 89.76953125 31.19287109 C90.04990234 32.25634766 90.04990234 32.25634766 90.3359375 33.34130859 C90.97780641 37.56260864 90.87335245 41.74293005 90.83203125 46.00537109 C90.82751953 46.88902344 90.82300781 47.77267578 90.81835938 48.68310547 C90.80662991 50.85305668 90.7886962 53.02297281 90.76953125 55.19287109 C91.30320312 55.35142578 91.836875 55.50998047 92.38671875 55.67333984 C96.72040628 57.03042885 100.53427555 58.5730515 104.48046875 60.82958984 C110.62469289 64.001608 116.59307076 63.97125005 123.39453125 64.00537109 C125.18697266 64.04307617 125.18697266 64.04307617 127.015625 64.08154297 C129.93392583 64.13990899 132.85074403 64.17655966 135.76953125 64.19287109 C135.66769531 65.25763672 135.56585938 66.32240234 135.4609375 67.41943359 C135.20083884 72.89355888 134.93580122 78.47996457 138.11181641 83.17871094 C141.65222418 87.05924522 145.74683546 90.30555369 149.83642578 93.5859375 C179.91272649 118.58747972 196.93543378 162.25813642 200.76953125 200.19287109 C202.35294452 233.65203148 198.21861939 264.47794159 183.80679321 294.96760559 C182.72717773 297.28373322 181.68383944 299.61353074 180.64892578 301.94995117 C180.2950882 302.74814774 179.94125061 303.5463443 179.57669067 304.36872864 C179.31032806 304.97069565 179.04396545 305.57266266 178.76953125 306.19287109 C179.44944689 306.86909956 180.12936253 307.54532803 180.82988167 308.24204826 C197.39227633 324.71554649 213.94305498 341.20064518 230.48179817 357.69788933 C238.48015859 365.67564644 246.48221685 373.64962657 254.49316406 381.61474609 C261.4775173 388.55916348 268.45475162 395.51064245 275.42361724 402.47060311 C279.11198591 406.15376853 282.80376269 409.83336186 286.50409317 413.50451279 C289.99130951 416.96445365 293.46888519 420.43380462 296.93949318 423.9104023 C298.21060692 425.18042122 299.48511782 426.4470512 300.76336861 427.70988655 C312.48943434 439.30150891 320.6060224 450.00546365 321.14453125 467.19287109 C320.70589117 481.19280042 315.56447991 492.40412562 305.4765625 502.07958984 C293.32446906 511.56628905 280.72214341 513.29103221 265.76953125 512.19287109 C250.60492845 509.55919561 240.04960353 497.91181182 229.67895508 487.44287109 C228.4070581 486.17012605 227.1344965 484.89804488 225.86132812 483.62657166 C222.43592004 480.20201794 219.01978663 476.76834986 215.60534501 473.33286667 C212.02468241 469.73334343 208.43541926 466.14241632 204.84709167 462.55053711 C198.06633767 455.76049008 191.29326199 448.96283797 184.52296704 442.16236401 C176.80936315 434.41513041 169.08715349 426.67649894 161.36423838 418.93854904 C145.48979739 403.0328212 129.62609877 387.11641582 113.76953125 371.19287109 C110.65647188 372.42846868 107.59919103 373.70795236 104.57421875 375.14599609 C59.33309452 396.33282804 10.42362959 398.75818375 -36.73046875 382.00537109 C-81.39316071 365.40279173 -115.74027133 330.35401502 -135.41796875 287.50537109 C-154.57045745 244.19468307 -153.34817758 194.59986396 -136.44995117 150.90307617 C-128.93541224 132.19060531 -118.22025398 116.51789861 -105.23046875 101.19287109 C-104.62460938 100.46326172 -104.01875 99.73365234 -103.39453125 98.98193359 C-98.5586168 93.27074051 -93.25053383 88.2333557 -87.0390625 84.03662109 C-83.2623505 80.21263454 -83.33809921 77.56083737 -83.35546875 72.38037109 C-83.33484375 71.59210938 -83.31421875 70.80384766 -83.29296875 69.99169922 C-83.24612058 68.05921202 -83.23473126 66.12592137 -83.23046875 64.19287109 C-82.53187744 64.20447266 -81.83328613 64.21607422 -81.11352539 64.22802734 C-65.38080016 64.37273172 -53.90330671 63.00846467 -40.23046875 55.19287109 C-39.57046875 55.19287109 -38.91046875 55.19287109 -38.23046875 55.19287109 C-38.26188965 54.28746582 -38.26188965 54.28746582 -38.29394531 53.36376953 C-39.11990319 25.93987707 -39.11990319 25.93987707 -29.14453125 14.22412109 C-20.83031375 5.40086987 -12.32939441 0.14289404 0 0 Z M-6.16796875 34.81787109 C-7.83209571 38.5376843 -7.4231127 42.18806158 -7.23046875 46.19287109 C-6.35575928 46.05139648 -5.4810498 45.90992188 -4.57983398 45.76416016 C4.79297319 44.36723074 13.93209901 43.87984195 23.40307617 43.93212891 C25.70192924 43.94284731 27.99999849 43.93216 30.29882812 43.91943359 C40.26267719 43.9114622 49.91775648 44.71867284 59.76953125 46.19287109 C59.88776941 41.15592549 59.92708082 38.25257769 56.76953125 34.19287109 C52.88136678 30.68098061 49.32796639 30.07618431 44.20385742 30.03173828 C43.3057988 30.02213074 42.40774017 30.01252319 41.48246765 30.00262451 C40.51887833 29.99837463 39.555289 29.99412476 38.5625 29.98974609 C37.06436516 29.98119598 37.06436516 29.98119598 35.53596497 29.97247314 C33.42364559 29.96303381 31.31131156 29.9564934 29.19897461 29.95263672 C25.97939146 29.94293845 22.76044883 29.91190759 19.54101562 29.88037109 C17.48568086 29.87383983 15.43034155 29.86858984 13.375 29.86474609 C12.41748337 29.85239929 11.45996674 29.84005249 10.47343445 29.82733154 C4.02180525 29.8486667 -1.05515801 30.52970724 -6.16796875 34.81787109 Z " fill="#006EFE" transform="translate(170.23046875,-0.19287109375)"/>
<path d="M0 0 C1.26231445 -0.01606293 2.52462891 -0.03212585 3.82519531 -0.04867554 C5.20246702 -0.06016947 6.57974637 -0.07077691 7.95703125 -0.08056641 C8.65550171 -0.08589008 9.35397217 -0.09121376 10.0736084 -0.09669876 C13.77676289 -0.12339612 17.47988421 -0.14277459 21.18310547 -0.15722656 C24.22670912 -0.1705121 27.26963375 -0.19826766 30.31298828 -0.23925781 C34.00706497 -0.28899616 37.70053086 -0.31339786 41.39492798 -0.32045364 C42.79178547 -0.32710246 44.18863278 -0.34215492 45.58529663 -0.36634445 C57.99948708 -0.56894164 68.09124524 2.11312545 77.734375 10.18115234 C83.79393558 16.17092911 87.77470727 22.92202396 89.76953125 31.19287109 C90.04990234 32.25634766 90.04990234 32.25634766 90.3359375 33.34130859 C90.97780641 37.56260864 90.87335245 41.74293005 90.83203125 46.00537109 C90.82751953 46.88902344 90.82300781 47.77267578 90.81835938 48.68310547 C90.80662991 50.85305668 90.7886962 53.02297281 90.76953125 55.19287109 C91.30320312 55.35142578 91.836875 55.50998047 92.38671875 55.67333984 C98.71505186 57.65504969 103.66477095 60.14049094 109.76953125 63.19287109 C122.63953125 63.68787109 122.63953125 63.68787109 135.76953125 64.19287109 C135.27453125 149.33287109 135.27453125 149.33287109 134.76953125 236.19287109 C62.82953125 236.19287109 -9.11046875 236.19287109 -83.23046875 236.19287109 C-83.23046875 179.43287109 -83.23046875 122.67287109 -83.23046875 64.19287109 C-74.65046875 63.86287109 -66.07046875 63.53287109 -57.23046875 63.19287109 C-50.98384098 60.65517856 -45.91455214 58.44197605 -40.23046875 55.19287109 C-39.57046875 55.19287109 -38.91046875 55.19287109 -38.23046875 55.19287109 C-38.25141602 54.58926758 -38.27236328 53.98566406 -38.29394531 53.36376953 C-39.11990319 25.93987707 -39.11990319 25.93987707 -29.14453125 14.22412109 C-20.83031375 5.40086987 -12.32939441 0.14289404 0 0 Z M-6.16796875 34.81787109 C-7.83209571 38.5376843 -7.4231127 42.18806158 -7.23046875 46.19287109 C-6.35575928 46.05139648 -5.4810498 45.90992188 -4.57983398 45.76416016 C4.79297319 44.36723074 13.93209901 43.87984195 23.40307617 43.93212891 C25.70192924 43.94284731 27.99999849 43.93216 30.29882812 43.91943359 C40.26267719 43.9114622 49.91775648 44.71867284 59.76953125 46.19287109 C59.88776941 41.15592549 59.92708082 38.25257769 56.76953125 34.19287109 C52.88136678 30.68098061 49.32796639 30.07618431 44.20385742 30.03173828 C43.3057988 30.02213074 42.40774017 30.01252319 41.48246765 30.00262451 C40.51887833 29.99837463 39.555289 29.99412476 38.5625 29.98974609 C37.06436516 29.98119598 37.06436516 29.98119598 35.53596497 29.97247314 C33.42364559 29.96303381 31.31131156 29.9564934 29.19897461 29.95263672 C25.97939146 29.94293845 22.76044883 29.91190759 19.54101562 29.88037109 C17.48568086 29.87383983 15.43034155 29.86858984 13.375 29.86474609 C12.41748337 29.85239929 11.45996674 29.84005249 10.47343445 29.82733154 C4.02180525 29.8486667 -1.05515801 30.52970724 -6.16796875 34.81787109 Z " fill="#FE9D00" transform="translate(170.23046875,-0.19287109375)"/>
<path d="M0 0 C0 51.15 0 102.3 0 155 C35.97 155 71.94 155 109 155 C109 165.89 109 176.78 109 188 C129.79 188 150.58 188 172 188 C172 197.9 172 207.8 172 218 C151.21 218 130.42 218 109 218 C109 249.02 109 280.04 109 312 C59.11475382 312 15.46461078 291.31614457 -19.5625 256.44921875 C-52.36629685 221.80546535 -67.33001245 175.18471493 -66.13623047 128.0859375 C-64.3362445 87.31206178 -48.12401448 50.82046652 -22 20 C-21.39414063 19.27039063 -20.78828125 18.54078125 -20.1640625 17.7890625 C-16.14566047 13.04334788 -11.77094253 8.9790047 -7 5 C-6.40445313 4.48953125 -5.80890625 3.9790625 -5.1953125 3.453125 C-1.14080056 0 -1.14080056 0 0 0 Z " fill="#0094FE" transform="translate(87,81)"/>
<path d="M0 0 C6.90156367 5.6618334 13.1376874 11.97464774 19.44946289 18.27246094 C20.7016468 19.51837062 21.95401695 20.76409314 23.20655823 22.00964355 C27.2988194 26.08098574 31.38585513 30.15755331 35.47265625 34.234375 C36.88500701 35.64267443 38.29739058 37.05094097 39.70980644 38.45917511 C46.3438537 45.07420184 52.97550831 51.69161574 59.60422617 58.31198287 C67.23764589 65.93562492 74.87927776 73.55090997 82.52797133 81.15922713 C88.45368442 87.05473641 94.37165887 92.95794286 100.28394312 98.8669188 C103.80925636 102.38988766 107.33776089 105.90950988 110.87449837 109.42101288 C114.20185219 112.72500456 117.51945602 116.03848943 120.83002281 119.35929871 C122.04148759 120.57125687 123.25633644 121.77984399 124.47492218 122.98464203 C136.05015192 134.43626434 143.84722335 145.15512861 144.375 162 C143.93635992 175.99992932 138.79494866 187.21125452 128.70703125 196.88671875 C116.55493781 206.37341796 103.95261216 208.09816112 89 207 C73.85701677 204.37007924 63.28919975 192.73400565 52.90942383 182.29760742 C51.63749845 181.02975594 50.36493768 179.76254162 49.09179688 178.49591064 C45.66613839 175.08382296 42.249909 171.66244332 38.83581376 168.23879027 C35.25423896 164.6495788 31.66530363 161.067739 28.07756042 157.48469543 C22.06477917 151.47735446 16.0583132 145.46375372 10.05541992 139.4465332 C3.11092872 132.48565935 -3.84438413 125.53573872 -10.80529994 118.59129256 C-16.78976254 112.62042332 -22.76838537 106.64375398 -28.74212247 100.66215402 C-32.30696532 97.09263046 -35.8738133 93.52517404 -39.44594383 89.96294212 C-42.79590733 86.62161674 -46.13850006 83.2730916 -49.47544098 79.91876221 C-50.70320915 78.68701484 -51.93356043 77.45783628 -53.16661263 76.23137856 C-54.84364778 74.56249079 -56.51124655 72.88472159 -58.17668152 71.20426941 C-58.67111053 70.71653256 -59.16553954 70.22879571 -59.67495126 69.72627896 C-63 66.34245442 -63 66.34245442 -63 63 C-60.65355888 61.39405913 -58.33627914 59.97146273 -55.875 58.5625 C-47.44074486 53.4982046 -40.17858403 47.70435883 -33 41 C-32.38237793 40.42620605 -31.76475586 39.85241211 -31.12841797 39.26123047 C-18.74812979 27.63911253 -8.29661888 14.85608975 0 0 Z " fill="#FECC00" transform="translate(347,305)"/>
<path d="M0 0 C1.26231445 -0.01606293 2.52462891 -0.03212585 3.82519531 -0.04867554 C5.20246702 -0.06016947 6.57974637 -0.07077691 7.95703125 -0.08056641 C8.65550171 -0.08589008 9.35397217 -0.09121376 10.0736084 -0.09669876 C13.77676289 -0.12339612 17.47988421 -0.14277459 21.18310547 -0.15722656 C24.22670912 -0.1705121 27.26963375 -0.19826766 30.31298828 -0.23925781 C34.00706497 -0.28899616 37.70053086 -0.31339786 41.39492798 -0.32045364 C42.79178547 -0.32710246 44.18863278 -0.34215492 45.58529663 -0.36634445 C57.99948708 -0.56894164 68.09124524 2.11312545 77.734375 10.18115234 C83.79393558 16.17092911 87.77470727 22.92202396 89.76953125 31.19287109 C90.04990234 32.25634766 90.04990234 32.25634766 90.3359375 33.34130859 C90.97780641 37.56260864 90.87335245 41.74293005 90.83203125 46.00537109 C90.82751953 46.88902344 90.82300781 47.77267578 90.81835938 48.68310547 C90.80662991 50.85305668 90.7886962 53.02297281 90.76953125 55.19287109 C91.35468506 55.37825439 91.93983887 55.5636377 92.54272461 55.75463867 C96.98303959 57.19221628 101.18153696 58.71743745 105.33203125 60.88037109 C106.17894531 61.31736328 107.02585937 61.75435547 107.8984375 62.20458984 C108.51589844 62.53072266 109.13335937 62.85685547 109.76953125 63.19287109 C109.76953125 63.52287109 109.76953125 63.85287109 109.76953125 64.19287109 C82.04953125 64.19287109 54.32953125 64.19287109 25.76953125 64.19287109 C25.76953125 86.96287109 25.76953125 109.73287109 25.76953125 133.19287109 C30.71953125 133.19287109 35.66953125 133.19287109 40.76953125 133.19287109 C40.76953125 148.70287109 40.76953125 164.21287109 40.76953125 180.19287109 C30.86953125 180.19287109 20.96953125 180.19287109 10.76953125 180.19287109 C10.76953125 164.68287109 10.76953125 149.17287109 10.76953125 133.19287109 C-19.92046875 133.19287109 -50.61046875 133.19287109 -82.23046875 133.19287109 C-82.23046875 166.85287109 -82.23046875 200.51287109 -82.23046875 235.19287109 C-10.62046875 235.19287109 60.98953125 235.19287109 134.76953125 235.19287109 C134.76953125 235.52287109 134.76953125 235.85287109 134.76953125 236.19287109 C62.82953125 236.19287109 -9.11046875 236.19287109 -83.23046875 236.19287109 C-83.23046875 179.43287109 -83.23046875 122.67287109 -83.23046875 64.19287109 C-74.65046875 63.86287109 -66.07046875 63.53287109 -57.23046875 63.19287109 C-50.98384098 60.65517856 -45.91455214 58.44197605 -40.23046875 55.19287109 C-39.57046875 55.19287109 -38.91046875 55.19287109 -38.23046875 55.19287109 C-38.25141602 54.58926758 -38.27236328 53.98566406 -38.29394531 53.36376953 C-39.11990319 25.93987707 -39.11990319 25.93987707 -29.14453125 14.22412109 C-20.83031375 5.40086987 -12.32939441 0.14289404 0 0 Z M-6.16796875 34.81787109 C-7.83209571 38.5376843 -7.4231127 42.18806158 -7.23046875 46.19287109 C-6.35575928 46.05139648 -5.4810498 45.90992188 -4.57983398 45.76416016 C4.79297319 44.36723074 13.93209901 43.87984195 23.40307617 43.93212891 C25.70192924 43.94284731 27.99999849 43.93216 30.29882812 43.91943359 C40.26267719 43.9114622 49.91775648 44.71867284 59.76953125 46.19287109 C59.88776941 41.15592549 59.92708082 38.25257769 56.76953125 34.19287109 C52.88136678 30.68098061 49.32796639 30.07618431 44.20385742 30.03173828 C43.3057988 30.02213074 42.40774017 30.01252319 41.48246765 30.00262451 C40.51887833 29.99837463 39.555289 29.99412476 38.5625 29.98974609 C37.06436516 29.98119598 37.06436516 29.98119598 35.53596497 29.97247314 C33.42364559 29.96303381 31.31131156 29.9564934 29.19897461 29.95263672 C25.97939146 29.94293845 22.76044883 29.91190759 19.54101562 29.88037109 C17.48568086 29.87383983 15.43034155 29.86858984 13.375 29.86474609 C12.41748337 29.85239929 11.45996674 29.84005249 10.47343445 29.82733154 C4.02180525 29.8486667 -1.05515801 30.52970724 -6.16796875 34.81787109 Z " fill="#FAE06F" transform="translate(170.23046875,-0.19287109375)"/>
<path d="M0 0 C0.17380102 5.97722711 0.30042298 11.95296556 0.38452148 17.93212891 C0.41959766 19.96331419 0.46727355 21.99432433 0.52807617 24.02490234 C0.6135659 26.95454195 0.65281564 29.88183526 0.68359375 32.8125 C0.71972275 33.71178223 0.75585175 34.61106445 0.79307556 35.53759766 C0.79625152 40.70527339 0.07496896 43.47417709 -3.38085938 47.40649414 C-3.99433228 48.01433243 -4.60780518 48.62217072 -5.23986816 49.24842834 C-7.98463649 51.97984783 -9.92034261 55.15200712 -11.9375 58.4375 C-12.56918091 59.46121704 -12.56918091 59.46121704 -13.21362305 60.50561523 C-23.28833549 77.18657187 -29.67929376 94.81619031 -33 114 C-33.17273437 114.92071289 -33.34546875 115.84142578 -33.5234375 116.79003906 C-38.90926465 153.06711663 -28.90509712 192.19164269 -7.375 221.6875 C-3.13762632 226.99362513 1.33626035 232.06612892 6 237 C6.74636719 237.81082031 7.49273437 238.62164062 8.26171875 239.45703125 C15.12963826 246.66550875 22.82591611 252.38238089 31 258 C31.80695313 258.56460937 32.61390625 259.12921875 33.4453125 259.7109375 C56.31050177 274.54462659 82.39088528 279.09934895 109 281 C109 291.23 109 301.46 109 312 C59.11475382 312 15.46461078 291.31614457 -19.5625 256.44921875 C-52.36629685 221.80546535 -67.33001245 175.18471493 -66.13623047 128.0859375 C-64.3362445 87.31206178 -48.12401448 50.82046652 -22 20 C-21.39414063 19.27039063 -20.78828125 18.54078125 -20.1640625 17.7890625 C-16.14566047 13.04334788 -11.77094253 8.9790047 -7 5 C-6.40445313 4.48953125 -5.80890625 3.9790625 -5.1953125 3.453125 C-1.14080056 0 -1.14080056 0 0 0 Z " fill="#71BAFF" transform="translate(87,81)"/>
<path d="M0 0 C3.86732391 1.80523352 6.72531978 4.28503533 9.8125 7.1875 C10.3480249 7.68725342 10.8835498 8.18700684 11.43530273 8.7019043 C12.49371876 9.69297678 13.54986771 10.68647703 14.60351562 11.68261719 C15.71120213 12.72756061 16.83022443 13.76048558 17.953125 14.7890625 C46.62954935 41.93422147 64.99390563 85.97584025 66.28947449 125.07801819 C66.36904859 128.67740687 66.38474546 132.27483836 66.375 135.875 C66.37445618 136.63668488 66.37391235 137.39836975 66.37335205 138.18313599 C66.27206731 169.2293392 57.87998756 196.48678021 44 224 C43.34 224 42.68 224 42 224 C41.75378906 224.69867188 41.50757813 225.39734375 41.25390625 226.1171875 C30.57339897 250.67237245 4.0167512 274.3386906 -19 287 C-19.66 287 -20.32 287 -21 287 C-21 287.66 -21 288.32 -21 289 C-49.10327453 303.55018419 -77.13281097 312 -109 312 C-109 301.77 -109 291.54 -109 281 C-105.2875 280.9071875 -105.2875 280.9071875 -101.5 280.8125 C-62.00626176 278.94450303 -26.93586677 260.5983402 -0.25 232.0625 C4.68858718 226.40163316 8.94811505 220.31187132 13 214 C13.680625 212.94296875 14.36125 211.8859375 15.0625 210.796875 C21.1521879 200.7584051 25.15798582 190.05773733 29 179 C29.350625 178.00484375 29.70125 177.0096875 30.0625 175.984375 C41.26917834 139.79614287 34.78975081 99.72373626 17.47265625 66.76879883 C12.7191303 58.08862212 7.04191944 49.04191944 0 42 C-0.08874135 38.89748799 -0.11518455 35.8173188 -0.09765625 32.71484375 C-0.0962413 31.78402481 -0.09482635 30.85320587 -0.09336853 29.8941803 C-0.08775172 26.90858809 -0.0751964 23.92306971 -0.0625 20.9375 C-0.05748716 18.91862087 -0.05292388 16.89974057 -0.04882812 14.88085938 C-0.03777683 9.92054428 -0.02050095 4.96028468 0 0 Z " fill="#0093FE" transform="translate(305,81)"/>
<path d="M0 0 C30.69 0 61.38 0 93 0 C93 15.51 93 31.02 93 47 C97.95 47 102.9 47 108 47 C108 65.15 108 83.3 108 102 C72.36 102 36.72 102 0 102 C0 68.34 0 34.68 0 0 Z " fill="#FFCC00" transform="translate(88,133)"/>
<path d="M0 0 C36.3 0 72.6 0 110 0 C110 23.00241533 109.44227237 46.00183689 109 69 C73.03 69 37.06 69 0 69 C0 46.23 0 23.46 0 0 Z " fill="#FECB00" transform="translate(196,64)"/>
<path d="M0 0 C1.26231445 -0.01606293 2.52462891 -0.03212585 3.82519531 -0.04867554 C5.20246702 -0.06016947 6.57974637 -0.07077691 7.95703125 -0.08056641 C8.65550171 -0.08589008 9.35397217 -0.09121376 10.0736084 -0.09669876 C13.77676289 -0.12339612 17.47988421 -0.14277459 21.18310547 -0.15722656 C24.22670912 -0.1705121 27.26963375 -0.19826766 30.31298828 -0.23925781 C34.00706497 -0.28899616 37.70053086 -0.31339786 41.39492798 -0.32045364 C42.79178547 -0.32710246 44.18863278 -0.34215492 45.58529663 -0.36634445 C57.99948708 -0.56894164 68.09124524 2.11312545 77.734375 10.18115234 C83.79393558 16.17092911 87.77470727 22.92202396 89.76953125 31.19287109 C90.04990234 32.25634766 90.04990234 32.25634766 90.3359375 33.34130859 C90.97780641 37.56260864 90.87335245 41.74293005 90.83203125 46.00537109 C90.82751953 46.88902344 90.82300781 47.77267578 90.81835938 48.68310547 C90.80662991 50.85305668 90.7886962 53.02297281 90.76953125 55.19287109 C91.35468506 55.37825439 91.93983887 55.5636377 92.54272461 55.75463867 C96.98303959 57.19221628 101.18153696 58.71743745 105.33203125 60.88037109 C106.17894531 61.31736328 107.02585937 61.75435547 107.8984375 62.20458984 C108.51589844 62.53072266 109.13335937 62.85685547 109.76953125 63.19287109 C109.76953125 63.52287109 109.76953125 63.85287109 109.76953125 64.19287109 C54.65953125 64.19287109 -0.45046875 64.19287109 -57.23046875 64.19287109 C-53.68378039 61.53285483 -50.60446043 59.83335262 -46.60546875 58.00537109 C-45.45820312 57.47556641 -44.3109375 56.94576172 -43.12890625 56.39990234 C-40.23046875 55.19287109 -40.23046875 55.19287109 -38.23046875 55.19287109 C-38.25141602 54.58926758 -38.27236328 53.98566406 -38.29394531 53.36376953 C-39.11990319 25.93987707 -39.11990319 25.93987707 -29.14453125 14.22412109 C-20.83031375 5.40086987 -12.32939441 0.14289404 0 0 Z M-6.16796875 34.81787109 C-7.83209571 38.5376843 -7.4231127 42.18806158 -7.23046875 46.19287109 C-6.35575928 46.05139648 -5.4810498 45.90992188 -4.57983398 45.76416016 C4.79297319 44.36723074 13.93209901 43.87984195 23.40307617 43.93212891 C25.70192924 43.94284731 27.99999849 43.93216 30.29882812 43.91943359 C40.26267719 43.9114622 49.91775648 44.71867284 59.76953125 46.19287109 C59.88776941 41.15592549 59.92708082 38.25257769 56.76953125 34.19287109 C52.88136678 30.68098061 49.32796639 30.07618431 44.20385742 30.03173828 C43.3057988 30.02213074 42.40774017 30.01252319 41.48246765 30.00262451 C40.51887833 29.99837463 39.555289 29.99412476 38.5625 29.98974609 C37.06436516 29.98119598 37.06436516 29.98119598 35.53596497 29.97247314 C33.42364559 29.96303381 31.31131156 29.9564934 29.19897461 29.95263672 C25.97939146 29.94293845 22.76044883 29.91190759 19.54101562 29.88037109 C17.48568086 29.87383983 15.43034155 29.86858984 13.375 29.86474609 C12.41748337 29.85239929 11.45996674 29.84005249 10.47343445 29.82733154 C4.02180525 29.8486667 -1.05515801 30.52970724 -6.16796875 34.81787109 Z " fill="#675E68" transform="translate(170.23046875,-0.19287109375)"/>
<path d="M0 0 C4.46687677 3.75625251 8.78354655 7.60770534 12.94140625 11.703125 C13.4721727 12.2258197 14.00293915 12.7485144 14.54978943 13.28704834 C15.6611801 14.38473278 16.77111815 15.48388981 17.87963867 16.58447266 C18.99887924 17.6921847 20.12257433 18.7954144 21.25073242 19.89404297 C32.96366282 31.30174487 40.84182709 41.98289788 41.375 59 C40.93635992 72.99992932 35.79494866 84.21125452 25.70703125 93.88671875 C13.55493781 103.37341796 0.95261216 105.09816112 -14 104 C-29.73724315 101.26687259 -40.523971 88.89071661 -51.1875 78 C-52.4374395 76.73497363 -53.68808622 75.47064564 -54.93945312 74.20703125 C-57.96783178 71.14599408 -60.98654302 68.07572508 -64 65 C-60.17599988 60.43035108 -56.22181138 56.07910256 -51.99462891 51.88110352 C-51.14475403 51.0310096 -51.14475403 51.0310096 -50.27770996 50.16374207 C-48.42969132 48.31641253 -46.57817097 46.47263699 -44.7265625 44.62890625 C-43.43454448 43.33875597 -42.14274904 42.04838276 -40.85116577 40.75779724 C-37.47012957 37.38055811 -34.08609986 34.00633438 -30.70141602 30.63275146 C-27.24052041 27.18213071 -23.78249457 23.72863662 -20.32421875 20.27539062 C-13.55226856 13.51412814 -6.77714917 6.75605101 0 0 Z " fill="#FF9E00" transform="translate(450,408)"/>
<path d="M0 0 C41.25 0 82.5 0 125 0 C125 9.9 125 19.8 125 30 C83.75 30 42.5 30 0 30 C0 20.1 0 10.2 0 0 Z " fill="#DFE0EB" transform="translate(134,269)"/>
<path d="M0 0 C4.48166236 -0.11590506 8.9579641 -0.21507012 13.43994141 -0.2746582 C14.95867694 -0.29953709 16.47729618 -0.33345385 17.99560547 -0.37719727 C31.09491598 -0.74466967 41.57118116 1.2923131 51.96484375 9.98828125 C58.02440433 15.97805802 62.00517602 22.72915286 64 31 C64.18691406 31.70898438 64.37382812 32.41796875 64.56640625 33.1484375 C65.20827516 37.36973755 65.1038212 41.55005896 65.0625 45.8125 C65.05798828 46.69615234 65.05347656 47.57980469 65.04882812 48.49023438 C65.03709866 50.66018559 65.01916495 52.83010172 65 55 C65.58515381 55.1853833 66.17030762 55.3707666 66.77319336 55.56176758 C71.21350834 56.99934518 75.41200571 58.52456636 79.5625 60.6875 C80.83287109 61.34298828 80.83287109 61.34298828 82.12890625 62.01171875 C82.74636719 62.33785156 83.36382812 62.66398437 84 63 C84 63.33 84 63.66 84 64 C67.5 64 51 64 34 64 C33.6875 51.8125 33.6875 51.8125 33.61206055 47.99536133 C33.57894775 46.9927124 33.54583496 45.99006348 33.51171875 44.95703125 C33.48553467 43.93585205 33.45935059 42.91467285 33.43237305 41.86254883 C32.93485867 38.56872836 31.97003747 36.66942115 30 34 C23.99343844 30.38649086 17.93408157 30.46295127 11.0625 30.3125 C5.5865625 30.1578125 5.5865625 30.1578125 0 30 C0 20.1 0 10.2 0 0 Z " fill="#544E56" transform="translate(196,0)"/>
<path d="M0 0 C20.46 0 40.92 0 62 0 C62 9.9 62 19.8 62 30 C41.54 30 21.08 30 0 30 C0 20.1 0 10.2 0 0 Z " fill="#F3F1F1" transform="translate(134,269)"/>
<path d="M0 0 C9.9 0 19.8 0 30 0 C30 15.51 30 31.02 30 47 C20.1 47 10.2 47 0 47 C0 31.49 0 15.98 0 0 Z " fill="#6A5F66" transform="translate(181,133)"/>
<path d="M0 0 C1.13180191 -0.0049926 1.13180191 -0.0049926 2.28646851 -0.01008606 C3.87472939 -0.01511564 5.46300069 -0.01749562 7.05126953 -0.01733398 C9.43410486 -0.01950678 11.81646583 -0.03766731 14.19921875 -0.05664062 C37.21861536 -0.14069232 37.21861536 -0.14069232 43.8359375 3.16796875 C43.8359375 9.10796875 43.8359375 15.04796875 43.8359375 21.16796875 C21.3959375 21.16796875 -1.0440625 21.16796875 -24.1640625 21.16796875 C-24.1640625 15.22796875 -24.1640625 9.28796875 -24.1640625 3.16796875 C-15.83854942 1.08659048 -8.51136295 0.01348763 0 0 Z " fill="#0094FF" transform="translate(186.1640625,42.83203125)"/>
<path d="M0 0 C4.95 0 9.9 0 15 0 C15 15.51 15 31.02 15 47 C10.38 47 5.76 47 1 47 C0 46 0 46 -0.12025452 44.13340759 C-0.11803391 43.31844315 -0.11581329 42.5034787 -0.11352539 41.66381836 C-0.11344986 40.7429393 -0.11337433 39.82206024 -0.11329651 38.87327576 C-0.10813522 37.87224319 -0.10297394 36.87121063 -0.09765625 35.83984375 C-0.0962413 34.82024063 -0.09482635 33.80063751 -0.09336853 32.75013733 C-0.08775097 29.47922893 -0.0751955 26.20838787 -0.0625 22.9375 C-0.05748726 20.72591244 -0.05292396 18.51432382 -0.04882812 16.30273438 C-0.03777583 10.86846346 -0.02049944 5.43424316 0 0 Z " fill="#554E56" transform="translate(196,133)"/>
<path d="M0 0 C2.805 0.020625 5.61 0.04125 8.5 0.0625 C8.5 6.9925 8.5 13.9225 8.5 21.0625 C-2.72 21.0625 -13.94 21.0625 -25.5 21.0625 C-25.5 15.1225 -25.5 9.1825 -25.5 3.0625 C-16.65495352 0.85123838 -9.00740327 -0.09459448 0 0 Z " fill="#71BAFE" transform="translate(187.5,42.9375)"/>
<path d="M0 0 C4.71370756 0.64985095 8.57686444 2.51561392 12.8125 4.5625 C13.50537109 4.89185547 14.19824219 5.22121094 14.91210938 5.56054688 C16.61044948 6.36872251 18.30555769 7.18368377 20 8 C20 8.33 20 8.66 20 9 C13.4 9 6.8 9 0 9 C0 6.03 0 3.06 0 0 Z " fill="#0192FB" transform="translate(260,55)"/>
<path d="M0 0 C0 2.97 0 5.94 0 9 C-6.27 9 -12.54 9 -19 9 C-15.45331164 6.33998373 -12.37399168 4.64048152 -8.375 2.8125 C-7.22773437 2.28269531 -6.08046875 1.75289062 -4.8984375 1.20703125 C-2 0 -2 0 0 0 Z " fill="#72BAFF" transform="translate(132,55)"/>
</svg>
